# xmcd CD database file
#
# Track frame offsets:
#	150
#	26851
#	52139
#	80342
#	105050
#	136858
#	159845
#	193382
#	215806
#	238369
#	274619
#	289279
#
# Disc length: 4521 seconds
#
# Revision: 0
# Processed by: cddbd v1.5.2PL0 Copyright (c) Steve Scherf et al.
# Submitted via: CDex 1.51
#
DISCID=b211a70c
DTITLE=Lee Morgan - The Legendary Quartet Sessions
DYEAR=1960
DGENRE=Jazz
TTITLE0=Easy Living
TTITLE1=Since I Fell For You
TTITLE2=Personality
TTITLE3=All At Once You Love Her
TTITLE4=Candy
TTITLE5=C.T.A.
TTITLE6=All The Way
TTITLE7=Who Do You Love, I Hope
TTITLE8='S Wonderful
TTITLE9=Flamingo
TTITLE10=Blues Pour Doudou
TTITLE11=Blackey Blues
EXTD=YEAR: 1960
EXTT0=
EXTT1=
EXTT2=
EXTT3=
EXTT4=
EXTT5=
EXTT6=
EXTT7=
EXTT8=
EXTT9=
EXTT10=
EXTT11=
PLAYORDER=
